# xmcd
#
# Track frame offsets: 
#        150
#        17684
#        36728
#        54482
#        71310
#        102083
#        129297
#        157177
#        180921
#        195623
#        227715
#        246841
#        277252
#        311022
#
# Disc length: 4373 seconds
#
# Revision: 0
# Processed by: cddbd v1.5.2PL0 Copyright (c) Steve Scherf et al.
# Submitted via: ExactAudioCopy v0.99pb5
#
DISCID=c111130e
DTITLE=Leszek Cichoñski - The Best of Studio and Live
DYEAR=2009
DGENRE=Blues
TTITLE0=01.Voodoo Child/Slight Return
TTITLE1=02.Cocaine
TTITLE2=03.Thanks Jimi
TTITLE3=04.Foxy Lady
TTITLE4=05.Dbaj o Milosc
TTITLE5=06.Messin` With A Kid
TTITLE6=07.Come Together
TTITLE7=08.New Times
TTITLE8=09.Blues-Rock Guitar Workshop
TTITLE9=10.Jed¿ ostro¿nie nie popêdzaj kó³
TTITLE10=11.Crazy horse
TTITLE11=12.All  Long The Watch Tower
TTITLE12=13.Hey Joe na 1201 gitar
TTITLE13=Track14.wav
EXTD=
EXTT0=
EXTT1=
EXTT2=
EXTT3=
EXTT4=
EXTT5=
EXTT6=
EXTT7=
EXTT8=
EXTT9=
EXTT10=
EXTT11=
EXTT12=
EXTT13=
PLAYORDER=
